# Blender v3.4.1 OBJ File: 'PrimerMapa.blend'
# www.blender.org
mtllib carreteraPMapa.mtl
o carretera_Plane.004
v 70.691811 7.553689 -9.498371
v 69.297272 6.897359 3.655588
v 83.454773 7.573215 -8.189112
v 81.877686 6.362627 6.100498
v 66.995049 4.970794 15.371186
v 78.881371 3.763675 17.702665
v 65.477364 1.393301 26.865625
v 59.571476 -2.631867 36.010971
v 53.978443 -7.930762 43.561119
v 45.726665 -12.840937 48.839931
v 36.041157 -15.708820 54.563175
v 25.439873 -15.712723 55.326824
v 14.532024 -14.661449 51.518391
v 2.352627 -14.394733 49.552151
v -14.508804 -14.107952 50.732563
v -29.623316 -10.639769 54.514263
v -24.651878 -15.176043 67.679016
v -40.436665 -7.113618 60.185848
v -36.652699 -11.120865 72.660736
v -50.712036 -4.151706 64.038818
v -49.522789 -6.906121 76.509392
v -60.852818 -1.876368 62.688755
v -66.295998 -2.888099 74.634399
v -69.300446 -0.421257 55.635517
v -78.721367 -1.616038 65.350548
v -75.760139 0.671358 45.899273
v -87.406471 -1.354465 51.081825
v -76.181763 0.744202 34.906174
v -88.536591 -1.039164 37.024979
v -75.709259 0.325640 23.957294
v -87.654060 -1.311975 23.934090
v -77.216446 0.129800 12.500712
v -74.870483 0.434337 1.269372
v -85.317574 -4.121945 -1.222487
v -81.251602 -2.868567 -13.335135
v -75.620064 -0.539703 -25.278494
v -71.685272 2.301314 -38.815697
v -62.042046 4.724915 -50.338291
v -47.814743 5.532713 -55.572269
v -30.749186 3.749815 -57.373997
v -21.516117 4.292306 -43.470448
v -16.533869 0.111010 -51.573666
v -7.127739 -3.159310 -44.085075
v -0.104971 -4.620689 -39.619183
v 7.413581 -4.648286 -41.519749
v 22.501886 0.134301 -39.556404
v 15.480534 -3.744562 -47.402626
v 30.949438 1.878087 -48.085110
v 23.747595 -1.962337 -55.212151
v 38.764938 4.106855 -56.349995
v 32.924480 0.672218 -64.697029
v 47.943470 4.635141 -72.030182
v 57.580956 8.903849 -56.252125
v 63.244495 6.736214 -67.305603
v 65.193115 7.987024 -50.111736
v 75.538635 4.501943 -58.045055
v 68.742249 6.645960 -40.491165
v 80.735756 3.685978 -43.671921
v 70.888832 5.876355 -28.673716
v 84.403145 4.110262 -28.992289
v 71.108360 6.764368 -16.433998
v 84.301041 6.369954 -15.157568
v 70.263039 7.655205 -4.050792
v 82.977806 7.610575 -2.490108
v 67.969940 6.166348 8.682557
v 80.484222 5.282011 11.143916
v 66.173309 3.033780 21.594786
v 65.946503 2.499163 23.312508
v 76.721481 1.423504 30.394182
v 76.436775 1.180697 31.115664
v 66.714935 3.156105 21.359850
v 77.853889 1.907701 27.545954
v 70.345695 -2.311401 41.466503
v 69.560188 -2.842020 42.667908
v 75.386551 0.330163 33.775143
v 62.628700 -7.644876 50.350422
v 61.367496 -8.636970 51.579506
v 67.884735 -4.289833 45.238068
v 53.371166 -13.349409 57.799107
v 51.776775 -14.295887 58.812889
v 57.995693 -10.865961 54.860111
v 40.181095 -16.410892 63.795109
v 37.598423 -17.022554 64.394028
v 46.073895 -15.572912 62.427063
v 26.944763 -16.316221 65.358620
v 23.997253 -16.284653 65.022804
v 31.323563 -16.714794 65.853996
v 15.099946 -15.895327 63.773388
v 12.441348 -15.672998 63.191795
v 17.359272 -16.005606 64.268593
v 1.809609 -16.014307 61.288086
v 4.319518 -16.045326 61.519749
v 5.240894 -15.995216 61.605370
v -6.250005 -15.984104 58.437309
v -8.730249 -16.237135 60.019753
v -11.525528 -16.636408 62.347710
v -5.267154 -15.762842 57.232853
v 0.302413 -14.811249 51.849754
v -0.087756 -14.586590 50.836632
v -4.313571 -15.587093 56.249996
v -2.550369 -15.108522 53.699635
v -1.774010 -16.152536 60.955597
v -13.572049 -16.736738 65.094353
v -11.603850 -16.648327 62.500000
v -11.945786 -16.681410 63.054214
v -12.500005 -16.755730 64.073364
v -88.204155 -2.852451 11.541610
v -88.148964 -2.829500 11.123101
v -77.202133 -0.020680 20.700319
v -77.240791 -0.059966 22.226128
v -76.309601 0.247633 19.393890
v -76.668167 0.201042 16.668333
v -88.486282 -2.643908 13.632071
v -87.600746 -3.347961 7.077948
v -73.452057 1.014564 -3.445310
v -71.945656 1.599647 -10.061983
v -71.763206 1.663947 -10.862808
v -68.638779 3.107680 -21.485823
v -70.806137 2.091576 -15.071300
v -68.499619 3.204890 -21.899397
v -63.670296 6.138014 -32.324493
v -67.093643 4.108189 -26.073641
v -56.002518 7.872980 -41.852261
v -61.733932 6.457320 -35.835075
v -54.246395 7.679148 -43.686943
v -44.978687 7.922883 -48.929096
v -41.001682 7.395103 -49.639164
v -32.038635 6.992720 -48.358742
v -35.748734 6.620200 -50.445805
v -44.735828 7.854399 -49.066151
v -31.813732 6.945346 -48.233578
v -30.295359 6.593718 -47.389168
v -12.499476 2.015013 -35.349506
v -13.602250 2.422209 -35.885227
v -12.201221 1.938200 -35.204021
v -2.913449 -0.561509 -31.509790
v -1.570513 -1.142808 -31.589729
v -9.404201 1.275946 -33.838627
v 11.575969 -0.249657 -32.587433
v 11.105099 -0.170850 -32.303082
v 12.919323 -0.044546 -33.400856
v 21.172417 0.203304 -38.393082
v 41.033531 4.557943 -58.260681
v 39.517677 4.318208 -56.605865
v 48.018211 6.132324 -63.005955
v 48.420555 6.798910 -59.377834
v 48.578217 6.791519 -59.487320
v 50.010845 6.716103 -60.513111
v 48.913383 6.109367 -63.612625
v 51.119648 6.668540 -61.380356
v 53.174164 6.543281 -63.212048
vt 0.000000 0.000000
vt 1.000000 0.000000
vt 1.000000 1.000000
vt 0.000000 1.000000
vt 0.000000 0.000000
vt 1.000000 0.000000
vt 1.000000 1.000000
vt 0.000000 1.000000
vt 0.939239 0.932581
vt 0.713164 1.000000
vt 0.000000 1.000000
vt 0.000000 0.000000
vt 0.541444 0.000000
vt 0.508307 0.041254
vt 0.690884 0.000000
vt 1.000000 0.000000
vt 1.000000 0.916088
vt 0.000000 0.916089
vt 0.000000 0.000000
vt 1.000000 0.000000
vt 1.000000 0.867553
vt 0.887871 0.875825
vt 0.213193 0.941024
vt 0.000000 0.867553
vt 0.000000 0.000000
vt 1.000000 0.000000
vt 1.000000 0.788520
vt 0.844972 0.807169
vt 0.251989 0.884430
vt 0.000000 0.788520
vt 0.000000 0.000000
vt 1.000000 0.000000
vt 1.000000 0.806749
vt 0.838358 0.813648
vt 0.390806 0.837972
vt 0.000000 0.806749
vt 0.000000 0.000000
vt 1.000000 0.000000
vt 1.000000 0.687888
vt 0.816644 0.735831
vt 0.428859 0.845132
vt 0.000000 0.687887
vt 0.000000 0.000000
vt 1.000000 0.000000
vt 1.000000 0.675584
vt 0.779407 0.710297
vt 0.463924 0.763219
vt 0.000000 0.675584
vt 0.000000 0.000000
vt 1.000000 0.000000
vt 1.000000 0.783522
vt 0.767220 0.769242
vt 0.570362 0.757605
vt 0.000000 0.783522
vt 0.000000 0.000000
vt 1.000000 0.000000
vt 1.000000 0.806412
vt 0.768147 0.788013
vt 0.681882 0.780572
vt 0.262110 0.773970
vt 0.000000 0.806412
vt 0.000000 0.000000
vt 1.000000 0.000000
vt 1.000000 0.844363
vt 0.765149 0.688662
vt 0.572606 0.585807
vt 0.495599 0.504550
vt 0.425820 0.439175
vt 0.302767 0.267514
vt 0.146956 0.078192
vt 0.123220 0.150998
vt 0.040211 0.886150
vt 0.007798 0.853567
vt 0.000000 0.844363
vt 0.000000 0.000000
vt 1.000000 0.000000
vt 1.000000 1.000000
vt 0.189848 1.000000
vt 0.096298 0.947190
vt 0.000000 0.000000
vt 1.000000 0.000000
vt 1.000000 1.000000
vt 0.000000 1.000000
vt 0.000000 0.000000
vt 1.000000 0.000000
vt 1.000000 1.000000
vt 0.000000 1.000000
vt 0.000000 0.000000
vt 1.000000 0.000000
vt 1.000000 1.000000
vt 0.000000 1.000000
vt 0.000000 0.000000
vt 1.000000 0.000000
vt 1.000000 1.000000
vt 0.000000 1.000000
vt 0.000000 0.000000
vt 1.000000 0.000000
vt 1.000000 1.000000
vt 0.000000 1.000000
vt 0.000000 0.000000
vt 1.000000 0.000000
vt 1.000000 1.000000
vt 0.000000 1.000000
vt 0.000000 0.000000
vt 1.000000 0.000000
vt 1.000000 1.000000
vt 0.000000 1.000000
vt 1.000000 0.000000
vt 1.000000 0.952470
vt 0.966154 0.961320
vt 0.799863 1.000000
vt 0.000000 1.000000
vt 0.000000 0.000000
vt 0.398322 0.000000
vt 0.148656 0.112666
vt 0.281124 0.092252
vt 0.636225 0.000000
vt 0.000000 0.952470
vt 0.000000 0.000000
vt 1.000000 0.000000
vt 1.000000 1.000000
vt 0.323895 1.000000
vt 1.000000 0.044942
vt 1.000000 1.000000
vt 0.000000 1.000000
vt 0.000000 0.000000
vt 0.421808 0.000000
vt 1.000000 0.033473
vt 1.000000 1.000000
vt 0.000000 1.000000
vt 0.000000 0.044942
vt 0.067592 0.051313
vt 0.427578 0.073752
vt 1.000000 0.030797
vt 1.000000 1.000000
vt 0.000000 1.000000
vt 0.000000 0.033473
vt 0.035474 0.037380
vt 0.397493 0.087960
vt 1.000000 0.010643
vt 1.000000 1.000000
vt 0.000000 1.000000
vt 0.000000 0.030796
vt 0.316081 0.090557
vt 1.000000 0.206837
vt 1.000000 1.000000
vt 0.000000 1.000000
vt 0.000000 0.010643
vt 0.191250 0.104882
vt 1.000000 0.019570
vt 1.000000 1.000000
vt 0.000000 1.000000
vt 0.000000 0.206836
vt 0.020079 0.219813
vt 0.302760 0.244887
vt 0.705384 0.285121
vt 0.167707 0.000000
vt 1.000000 0.000000
vt 1.000000 1.000000
vt 0.000000 1.000000
vt 0.000000 0.019570
vt 0.020405 0.016726
vt 1.000000 0.036185
vt 1.000000 1.000000
vt 0.000000 1.000000
vt 0.000000 0.000000
vt 0.897776 0.000000
vt 1.000000 0.061618
vt 1.000000 1.000000
vt 0.000000 1.000000
vt 0.000000 0.036184
vt 0.030122 0.033697
vt 0.298788 0.000000
vt 0.887017 0.000000
vt 1.000000 1.000000
vt 0.000000 1.000000
vt 0.000000 0.061619
vt 0.952724 0.145159
vt 1.000000 0.170875
vt 0.867952 0.000000
vt 1.000000 0.000000
vt 1.000000 1.000000
vt 0.000000 1.000000
vt 0.000000 0.170875
vt 0.128481 0.145298
vt 0.000000 0.000000
vt 1.000000 0.000000
vt 1.000000 1.000000
vt 0.000000 1.000000
vt 0.000000 0.000000
vt 1.000000 0.000000
vt 1.000000 1.000000
vt 0.000000 1.000000
vt 1.000000 0.279500
vt 1.000000 1.000000
vt 0.000000 1.000000
vt 0.000000 0.000000
vt 0.081095 0.000000
vt 0.285129 0.101887
vt 0.052943 0.013027
vt 0.039161 0.000000
vt 1.000000 0.000000
vt 1.000000 1.000000
vt 0.000000 1.000000
vt 0.000000 0.279500
vt 0.072427 0.351479
vt 0.420755 0.431395
vt 0.271407 0.232677
vt 0.179393 0.134036
vt 0.000000 0.000000
vt 1.000000 0.000000
vt 1.000000 1.000000
vt 0.000000 1.000000
vt 0.000000 0.000000
vt 1.000000 0.000000
vt 1.000000 1.000000
vt 0.000000 1.000000
vt 0.000000 0.000000
vt 1.000000 0.000000
vt 1.000000 1.000000
vt 0.000000 1.000000
vt 0.000000 0.000000
vt 1.000000 0.000000
vt 1.000000 1.000000
vt 0.000000 1.000000
vt 0.000000 0.000000
vt 1.000000 0.000000
vt 1.000000 1.000000
vt 0.000000 1.000000
vt 0.000000 0.000000
vt 1.000000 0.000000
vt 1.000000 1.000000
vt 0.000000 1.000000
vn 0.0101 0.9976 0.0690
vn 0.0312 0.9799 0.1973
vn -0.0107 0.9716 0.2363
vn -0.1339 0.9490 0.2854
vn -0.2727 0.8886 0.3688
vn -0.2999 0.8958 0.3281
vn -0.1395 0.9736 0.1807
vn 0.0374 0.9955 0.0875
vn 0.0522 0.9950 0.0855
vn -0.0223 0.9932 0.1146
vn 0.0135 0.9817 0.1900
vn 0.2268 0.9541 0.1959
vn 0.3821 0.9080 0.1721
vn 0.3456 0.9208 0.1807
vn 0.2029 0.9618 0.1837
vn 0.0329 0.9918 0.1236
vn -0.0775 0.9915 0.1048
vn -0.1494 0.9885 0.0246
vn -0.1424 0.9891 -0.0365
vn -0.1941 0.9794 -0.0554
vn -0.3110 0.9442 -0.1089
vn -0.4089 0.9122 -0.0277
vn -0.4379 0.8988 -0.0202
vn -0.4693 0.8821 0.0413
vn -0.3513 0.9304 -0.1048
vn -0.1569 0.9538 -0.2562
vn 0.0688 0.9345 -0.3492
vn 0.3450 0.9006 -0.2643
vn 0.4422 0.8713 -0.2128
vn 0.3656 0.8794 -0.3048
vn -0.0951 0.9086 -0.4068
vn -0.2581 0.9213 -0.2907
vn -0.3436 0.9268 -0.1515
vn -0.3796 0.9184 -0.1118
vn -0.3205 0.9343 -0.1561
vn -0.1056 0.9735 -0.2028
vn 0.2279 0.9689 -0.0963
vn 0.2715 0.9624 -0.0124
vn 0.1786 0.9836 -0.0264
vn 0.0843 0.9892 -0.1198
vn 0.0259 0.9963 -0.0825
vn 0.0132 0.9893 0.1456
usemtl CARRETERA
s off
f 1/1/1 2/2/1 4/3/1 3/4/1
f 2/5/2 5/6/2 6/7/2 4/8/2
f 69/9/3 72/10/3 6/11/3 5/12/3 67/13/3 71/14/3 68/15/3 7/16/3 70/17/3
f 70/18/4 7/19/4 8/20/4 74/21/4 73/22/4 75/23/4
f 74/24/5 8/25/5 9/26/5 77/27/5 76/28/5 78/29/5
f 77/30/6 9/31/6 10/32/6 80/33/6 79/34/6 81/35/6
f 80/36/7 10/37/7 11/38/7 83/39/7 82/40/7 84/41/7
f 83/42/8 11/43/8 12/44/8 86/45/8 85/46/8 87/47/8
f 86/48/9 12/49/9 13/50/9 89/51/9 88/52/9 90/53/9
f 89/54/10 13/55/10 14/56/10 91/57/10 92/58/10 93/59/10
f 102/60/11 91/61/11 14/62/11 15/63/11 96/64/11 95/65/11 94/66/11 97/67/11 100/68/11 101/69/11 99/70/11 98/71/11
f 105/72/12 104/73/12 96/74/12 15/75/12 16/76/12 17/77/12 103/78/12 106/79/12
f 16/80/13 18/81/13 19/82/13 17/83/13
f 18/84/14 20/85/14 21/86/14 19/87/14
f 20/88/15 22/89/15 23/90/15 21/91/15
f 22/92/16 24/93/16 25/94/16 23/95/16
f 24/96/17 26/97/17 27/98/17 25/99/17
f 26/100/18 28/101/18 29/102/18 27/103/18
f 28/104/19 30/105/19 31/106/19 29/107/19
f 32/108/20 108/109/20 107/110/20 113/111/20 31/112/20 30/113/20 111/114/20 110/115/20 109/116/20 112/117/20
f 108/118/21 32/119/21 33/120/21 34/121/21 114/122/21
f 116/123/22 35/124/22 34/125/22 33/126/22 115/127/22
f 118/128/23 36/129/23 35/130/23 116/131/23 117/132/23 119/133/23
f 121/134/24 37/135/24 36/136/24 118/137/24 120/138/24 122/139/24
f 123/140/25 38/141/25 37/142/25 121/143/25 124/144/25
f 126/145/26 39/146/26 38/147/26 123/148/26 125/149/26
f 128/150/27 40/151/27 39/152/27 126/153/27 130/154/27 127/155/27 129/156/27
f 132/157/28 41/158/28 42/159/28 40/160/28 128/161/28 131/162/28
f 133/163/29 43/164/29 42/165/29 41/166/29 134/167/29
f 137/168/30 44/169/30 43/170/30 133/171/30 135/172/30 138/173/30 136/174/30
f 45/175/31 44/176/31 137/177/31 140/178/31 139/179/31
f 142/180/32 46/181/32 47/182/32 45/183/32 139/184/32 141/185/32
f 46/186/33 48/187/33 49/188/33 47/189/33
f 48/190/34 50/191/34 51/192/34 49/193/34
f 145/194/35 52/195/35 51/196/35 50/197/35 144/198/35 143/199/35
f 147/200/36 146/201/36 53/202/36 54/203/36 52/204/36 145/205/36 149/206/36 151/207/36 150/208/36 148/209/36
f 53/210/37 55/211/37 56/212/37 54/213/37
f 55/214/38 57/215/38 58/216/38 56/217/38
f 57/218/39 59/219/39 60/220/39 58/221/39
f 59/222/40 61/223/40 62/224/40 60/225/40
f 61/226/41 63/227/41 64/228/41 62/229/41
f 63/230/42 65/231/42 66/232/42 64/233/42
