# Blender 4.2.3 LTS
# www.blender.org
mtllib arbolAdriantronco.mtl
o Cube
v 4.021311 5.665357 -0.795870
v 4.347285 0.817904 -1.108230
v 4.057626 5.676343 0.019298
v 4.347285 0.817904 0.748061
v 3.310957 5.621772 -0.720723
v 2.490994 0.817904 -1.108230
v 3.365055 5.646367 0.060835
v 2.490994 0.817904 0.748061
v 2.142939 0.817904 -0.180085
v 3.419139 0.817904 -1.456285
v 4.170297 3.850110 -0.965574
v 3.017875 3.834000 0.356904
v 4.195476 3.855122 0.332305
v 2.966349 3.808825 -0.891182
v 3.738306 6.017359 0.083992
v 4.100575 6.029909 -0.410749
v 3.419139 0.817904 1.096115
v 3.316285 5.981294 -0.333636
v 3.678554 5.993844 -0.828377
v 4.695339 0.817904 -0.180085
v 3.749758 6.746701 -0.399636
v 3.616334 3.882415 0.576023
v 2.777889 3.849950 -0.258468
v 4.400993 3.893712 -0.327884
v 3.562547 3.861247 -1.162375
vn 0.6265 0.4020 -0.6678
vn -0.7317 0.4352 -0.5247
vn -0.6387 0.4762 0.6043
vn 0.7266 0.4214 0.5427
vn 0.3641 0.1385 0.9210
vn 0.3862 0.1854 0.9036
vn -0.3251 0.2222 0.9192
vn -0.3476 0.1793 0.9203
vn -0.9144 0.2029 0.3504
vn -0.9094 0.2364 0.3422
vn -0.9424 0.2171 -0.2545
vn -0.9290 0.1787 -0.3240
vn 0.9349 0.0719 -0.3476
vn 0.9373 0.1138 -0.3295
vn 0.9551 0.1323 0.2652
vn 0.9389 0.0989 0.3296
vn -0.3772 0.1165 -0.9188
vn -0.4224 0.1633 -0.8916
vn 0.2743 0.1240 -0.9536
vn 0.3340 0.0694 -0.9400
vt 0.625000 0.500000
vt 0.750000 0.500000
vt 0.750000 0.625000
vt 0.625000 0.625000
vt 0.875000 0.500000
vt 0.875000 0.625000
vt 0.875000 0.750000
vt 0.750000 0.750000
vt 0.625000 0.750000
vt 0.375000 0.750000
vt 0.500000 0.750000
vt 0.500000 0.875000
vt 0.375000 0.875000
vt 0.625000 0.875000
vt 0.625000 1.000000
vt 0.500000 1.000000
vt 0.375000 1.000000
vt 0.375000 0.000000
vt 0.500000 0.000000
vt 0.500000 0.125000
vt 0.375000 0.125000
vt 0.625000 0.000000
vt 0.625000 0.125000
vt 0.625000 0.250000
vt 0.500000 0.250000
vt 0.375000 0.250000
vt 0.375000 0.500000
vt 0.500000 0.500000
vt 0.500000 0.625000
vt 0.375000 0.625000
vt 0.500000 0.375000
vt 0.375000 0.375000
vt 0.625000 0.375000
s 0
usemtl Material
f 1/1/1 19/2/1 21/3/1 16/4/1
f 19/2/2 5/5/2 18/6/2 21/3/2
f 21/3/3 18/6/3 7/7/3 15/8/3
f 16/4/4 21/3/4 15/8/4 3/9/4
f 4/10/5 13/11/5 22/12/5 17/13/5
f 13/11/6 3/9/6 15/14/6 22/12/6
f 22/12/7 15/14/7 7/15/7 12/16/7
f 17/13/8 22/12/8 12/16/8 8/17/8
f 8/18/9 12/19/9 23/20/9 9/21/9
f 12/19/10 7/22/10 18/23/10 23/20/10
f 23/20/11 18/23/11 5/24/11 14/25/11
f 9/21/12 23/20/12 14/25/12 6/26/12
f 2/27/13 11/28/13 24/29/13 20/30/13
f 11/28/14 1/1/14 16/4/14 24/29/14
f 24/29/15 16/4/15 3/9/15 13/11/15
f 20/30/16 24/29/16 13/11/16 4/10/16
f 6/26/17 14/25/17 25/31/17 10/32/17
f 14/25/18 5/24/18 19/33/18 25/31/18
f 25/31/19 19/33/19 1/1/19 11/28/19
f 10/32/20 25/31/20 11/28/20 2/27/20
